<svg id="Layer_1" data-name="Layer 1" xmlns="http://www.w3.org/2000/svg" viewBox="0 0 1897.07 258.88"><defs><style>.cls-1{fill:#fff;}</style></defs><title>RQ-logo-transparent-mono</title><rect class="cls-1" x="860.41" y="218.23" width="1012.55" height="15.66"/><path class="cls-1" d="M19.62,27.83H80.71a124.6,124.6,0,0,1,24.46,2.36,62.76,62.76,0,0,1,21,8.07,42.28,42.28,0,0,1,14.65,15.4q5.46,9.69,5.46,24.59,0,19.13-10.56,32t-30.17,15.65l46.69,77.73H114.49L73.76,129.16H50.91v74.51H19.62Zm55.63,74.51q6.71,0,13.41-.62a41,41,0,0,0,12.29-3,21,21,0,0,0,9.06-7.2q3.47-4.84,3.48-13.54,0-7.69-3.23-12.42a20.11,20.11,0,0,0-8.44-7.08,38.93,38.93,0,0,0-11.55-3.1A105.25,105.25,0,0,0,78,54.65H50.91v47.68Z"/><path class="cls-1" d="M233,27.83H260l75.75,175.83H300l-16.39-40.23H207.37l-15.89,40.23h-35Zm39.74,108.78L245.62,65.08,218,136.61Z"/><path class="cls-1" d="M319.62,27.83h36L403.57,160.7,453,27.83h33.78l-71,175.83H388.66Z"/><path class="cls-1" d="M505.63,27.83H622.11V56.14H536.93V99.35h80.71v28.31H536.93v47.68h89.65v28.31H505.63Z"/><path class="cls-1" d="M657.38,27.83h41.47L784,158.46h.5V27.83h31.29V203.66H776.09L689.16,68.81h-.5V203.66H657.38Z"/><path class="cls-1" d="M1079.87,203.66H977.55a111.28,111.28,0,0,1-38.12-6.33,88.48,88.48,0,0,1-30.3-18.13A83.49,83.49,0,0,1,889,150.39q-7.33-17-7.33-38.37A85.71,85.71,0,0,1,909,48.32a92.16,92.16,0,0,1,29.43-18.38,99.78,99.78,0,0,1,71.28,0,92.16,92.16,0,0,1,29.43,18.38,85.71,85.71,0,0,1,27.32,63.7,80.92,80.92,0,0,1-3.35,24.46,71.86,71.86,0,0,1-8.82,18.63,64.19,64.19,0,0,1-12,13.54,103.89,103.89,0,0,1-12.79,9.19v.5h50.42Zm-106.54-152a59.36,59.36,0,0,0-23.47,4.59,55.44,55.44,0,0,0-18.63,12.79,60,60,0,0,0-12.29,19.37,64.94,64.94,0,0,0-4.47,24.34,68.54,68.54,0,0,0,4.47,25,59.41,59.41,0,0,0,12.42,19.87,57.33,57.33,0,0,0,18.75,13,58.59,58.59,0,0,0,23.72,4.72,60.39,60.39,0,0,0,24-4.72,56.73,56.73,0,0,0,19-13,59.48,59.48,0,0,0,12.42-19.87,68.54,68.54,0,0,0,4.47-25,64.94,64.94,0,0,0-4.47-24.34,59,59,0,0,0-12.42-19.37,56.22,56.22,0,0,0-19-12.79A63.15,63.15,0,0,0,973.32,51.67Z"/><path class="cls-1" d="M1243.53,139.09a72.37,72.37,0,0,1-5.46,28.68,64.32,64.32,0,0,1-14.9,21.73,65.61,65.61,0,0,1-22.35,13.78,83.74,83.74,0,0,1-56.13,0,66.87,66.87,0,0,1-22.48-13.78,62,62,0,0,1-14.9-21.73,73.76,73.76,0,0,1-5.34-28.68V27.83h31.29V138.1a50,50,0,0,0,2,13.54,37.94,37.94,0,0,0,6.58,13,35.11,35.11,0,0,0,12.17,9.81q7.57,3.85,18.75,3.85t18.75-3.85a35.19,35.19,0,0,0,12.17-9.81,38.09,38.09,0,0,0,6.58-13,50.11,50.11,0,0,0,2-13.54V27.83h31.29Z"/><path class="cls-1" d="M1272.58,116.49q0-21.11,7-38.37a86.08,86.08,0,0,1,19.25-29.43,84.4,84.4,0,0,1,29.3-18.75,102.8,102.8,0,0,1,37.38-6.58,104.52,104.52,0,0,1,37.75,6.08,82.56,82.56,0,0,1,29.55,18.5,85.52,85.52,0,0,1,19.37,29.31q6.95,17.14,7,38.25a97.66,97.66,0,0,1-7,37.5,86,86,0,0,1-19.37,29.06,88.48,88.48,0,0,1-29.55,19,104.6,104.6,0,0,1-37.75,7.08,102.81,102.81,0,0,1-37.38-6.58A83.8,83.8,0,0,1,1279.53,154,97.58,97.58,0,0,1,1272.58,116.49Zm32.78-2a75.58,75.58,0,0,0,4.35,26.08A61.17,61.17,0,0,0,1322,161.19a57.12,57.12,0,0,0,19,13.66,59.56,59.56,0,0,0,24.71,5,60.45,60.45,0,0,0,24.84-5,56.85,56.85,0,0,0,19.12-13.66A61.28,61.28,0,0,0,1422,140.58a75.67,75.67,0,0,0,4.35-26.08A68.64,68.64,0,0,0,1422,89.92a61,61,0,0,0-12.29-20,56.26,56.26,0,0,0-19.12-13.41,61.84,61.84,0,0,0-24.84-4.84A60.92,60.92,0,0,0,1341,56.51a56.51,56.51,0,0,0-19,13.41,60.86,60.86,0,0,0-12.29,20A68.56,68.56,0,0,0,1305.36,114.5Z"/><path class="cls-1" d="M1524.9,56.14H1471V27.83h139.08V56.14H1556.2V203.66H1524.9Z"/><path class="cls-1" d="M1631.44,27.83h116.48V56.14h-85.18V99.35h80.71v28.31h-80.71v47.68h89.65v28.31H1631.44Z"/><rect class="cls-1" x="1779.5" y="27.83" width="3.07" height="175.83"/></svg>